<svg xmlns="http://www.w3.org/2000/svg" width="409.048" height="503.407" viewBox="0 0 500 500">
  <path fill="none" stroke="#000" stroke-width="2" d="M338.47 77.597c-26.206 11.168-62.77 17.706-77.91 34.854-19.436 22.013-12.907 61.966-26.654 84.062 0 0-.127-18.344-7.79-27.474-18.454-21.76-7.694-45.473 20.092-50.437 0 0-14.352 20.913-25.013 28.294-47.258 28.823-130.413 76.216-127.527 182.884 13.618 30.443 40.796 48.534 23.783 82.011-5.81-19.608-16.438-20.065-25.834-33.624-23.984-34.614 8.092-36.531-.82-5.74-3.28 10.66-41.415 53.921-49.616 62.122-18.549-75.342 22.85-70.018 25.013-98.208 6.201-77.453 44.345-191.163 151.72-223.07 4.92 4.101-41.825 79.551-47.566 83.652-5.167-72.27 32.48-149.18 109.074-150.9 25.555 5.833-21.352 27.504-29.934 29.318-10.866 0-2.505-6.641 1.436-7.79 5.754-1.679 47.156-3.691 81.19-2.871 13.938.336 17.223 5.74 13.532 10.661-12.55 7.448-25.81-7.684-30.959-12.916 0-3.955-17.175-26.416-35.438-25.834-108.737 3.47-167.515 61.37-189.272 125.477-7.168-17.536-14.252-28.166-34.444-26.654 10.505-13.887 31.544-40.703 70.529-41.005-54.419 40.335-74.694 143.808-59.868 233.731"/>
</svg>
