<svg xmlns="http://www.w3.org/2000/svg" width="527.081" height="639.348" viewBox="0 0 494.139 599.389">
  <path fill="none" stroke="#d35f5f" stroke-width="2" d="M57.517 436.16c-13.098-58.036-34.142-139.31-10.089-213.052C24.504 146.256 249.265 32.652 322.155 75.405c18.25 10.705 13.68 25.753 19.771 43.992 7.225 21.632 11.872 25.279 16.944 35.219 1.534 3.005 3.75 7.682-4.918 28.791-9.64 23.475-1.246 74.476 4.205 90.83 32.381 73.193 103.699 45.445 99.373 57.001-35.06 18.992-77.661-3.598-96.192-19.698-7.687-3.414-6.643-30.861-8.225-32.763-33.378-12.46-65.962 5.213-60.784-2.017 27.04-30.172 68.041-4.605 67.341-8.576-4.188-23.769-70.657-4.526-65.828-6.053 0 0 3.814-30.752-4.26-49.699-5.269-12.366-12.573-21.206-24.24-33.28-7.426-7.684 3.451-16.553-.505-24.465-2.156-4.312-12.162-11.77-16.646-11.854-5.22-.096-12.22 11.223-23.47 20.413-6.032 4.927-17.612 4.956-23.442 11.114-17.657 18.655 27.644 132.665-28.248 105.93-31.111-7.2-57.965-65.861-116.019-93.823C17.22 104.8 84.778 65.587 128.137 44.722c31.118-21.605 60.508 3.993 88.075 19.245 8.203 2.823 10.861-2.06 14.829-.077 91.114 11.515 34.138 76.538-58.626 28.37-4.279-2.221-16.622-28.212-10.2-39.61 0 0 25.331 31.79 27.739 64.759 1.164 15.936-4.952 44.254-2.294 49.05 7.29 13.155 14.267 16.524 41.363 25.556 28.151 12.72 34.192-31.743 25.221-37.328-12.33-6.165-28.5 16.647-28.5 16.647 1.327-3.98 27.44-11.308 22.7-1.01-1.821 3.956-15.15-8.071-6.306-11.601 13.018 6.306 17.655 17.907-1.765 14.88.296 12.072 15.882-.747 19.42 3.027 7.993 22.712.883 38.988 8.717 48.116 7.36 8.578 23.437 31.018 18.018 42.934 0 2.939-1.054 3.728-2.018 6.053-11.267 27.176-18.31-1.153-16.394-2.27-11.807-12.19-32.362-6.168-24.717 9.584 27.664 42.784 70.69 13.524 63.306 7.819-5.53-2.765-10.235 4.035-14.628 4.035-3.053 0-18.851-5.29-19.42-2.27-1.07 5.669 7.099 41.729 12.61 63.306 5.711 22.362 6.428 95.601-4.288 138.214-13.682 54.411-35.2 35.2-48.93 58.01-2.321 3.857-11.095-1.515-14.628 2.018-14.092 14.092 22.829 10.741 27.744 9.584 105.571-17.395 112.944-225.383 111.799-301.734-.348-23.176 11.307-41.125 16.326-58.934 3.686-11.058 11.097-24.665 11.097-36.319 8.614-40.696-7.766-42.528-12.357-65.15-3.398-16.745-10.448-52.334-30.015-54.4-13.073-1.38-99.328 73.743-135.187 130.648-64.614 102.083 80.404 107.499 89.032 144.771 1.835 5.505-18.115 12.016-20.43 16.646-4.96 9.923 7.434 36.956 0 44.39-15.493 15.494-45.958 93.713-37.327 110.975"/>
</svg>
