<svg xmlns="http://www.w3.org/2000/svg" width="381" height="381">
  <path d="M10.5 190.5a180 180 0 00360 0 180 180 0 10-360 0" fill="#00112b"/>
  <g fill="#e2e3db">
    <path d="M280.676 102.324c-36.796.475-72.57 12.105-102.55 33.516 70.192 8.285 129.195 56.587 151.188 123.742 3.133-6.483 5.92-13.141 8.282-19.955 3.214-52.114-17.805-102.797-56.92-137.303zm-1.873 5.031c36.862 33.294 56.675 81.548 53.863 131.192a84.549 84.549 0 00-3.713 9.953c-23.29-59.648-75.926-102.958-138.986-114.547 26.71-16.722 57.39-25.83 88.836-26.598z"/>
    <path d="M276.919 112.411c-25.538.94-50.551 7.509-73.214 19.432 54.337 13.929 99.808 51.069 124.222 101.582 1.145-45.813-17.429-89.92-51.008-121.014zM293.491 107.664c3.872 3.844 7.535 7.99 11.128 12.403a21.165 21.165 0 003.528-10.848 423.12 423.12 0 00-14.656-1.555zM307.94 124.466c3.995-5.722 5.895-12.676 5.156-19.54 2.396.556 4.962 1.055 7.537 1.52 21.753 33.525 29.638 74.244 22.061 113.545a174.432 174.432 0 00-34.754-95.525zM166.067 76.612c-11.954 22.587-18.771 47.534-19.776 73.122 39.23-40.094 94.13-60.905 150.082-56.793-39.104-23.896-86.588-29.864-130.306-16.329z"/>
    <path d="M214.445 59.508a168.947 168.947 0 00-55.236 8.807c-17.986 32.104-25.8 68.901-22.246 105.57 42.27-56.647 113.6-83.597 182.756-69.069-4.048-5.954-8.421-11.694-13.14-17.146a169.277 169.277 0 00-92.134-28.162zm-2.093 4.996a164.354 164.354 0 0190.826 26.894 84.55 84.55 0 006.763 8.192c-63.302-9.652-127.126 14.277-168.691 63.096-1.128-31.493 6.324-62.617 21.38-90.233a163.962 163.962 0 0149.722-7.95zM170.242 59.886c5.265-1.431 10.688-2.53 16.305-3.436a21.165 21.165 0 00-7.63-8.479 423.156 423.156 0 00-8.675 11.915z"/>
    <path d="M192.017 55.773c-2.957-6.32-8.03-11.442-14.345-14.235 1.68-1.796 3.396-3.769 5.086-5.766 39.91-2.078 79.116 11.452 109.364 37.663a174.432 174.432 0 00-100.105-17.662z"/>
    <g>
      <path d="M180.904 35.736c-7.18.529-14.34 1.444-21.422 2.805-46.739 23.275-80.124 66.82-90.449 117.95 18.81 31.629 46.77 56.797 80.305 72.054-27.922-64.931-15.595-140.182 31.566-192.809zm-9.416 5.854c-40.011 49.996-51.2 117.235-29.705 177.642-27.838-14.77-51.067-36.786-67.455-63.634 10.402-48.572 42.284-89.859 86.684-112.246a84.56 84.56 0 0010.476-1.762z"/>
      <path d="M79.649 154.701c10.138-44.629 39.049-82.769 79.297-104.685-31.539 46.401-40.967 104.352-25.86 158.375-21.658-13.665-39.853-32.044-53.437-53.69zM72.428 126.883c-3.9-.247-7.783.593-11.158 2.369a423.145 423.145 0 005.98 13.47c1.394-5.275 3.154-10.521 5.178-15.839zM74.577 121.807c-6.953-.599-13.925 1.234-19.5 5.306-.716-2.354-1.567-4.825-2.452-7.288 18.157-35.602 49.478-62.791 87.303-75.88a174.436 174.436 0 00-65.351 77.862z"/>
    </g>
    <g>
      <path d="M51.686 121.418c-3.133 6.483-5.92 13.141-8.282 19.955-3.214 52.114 17.805 102.797 56.92 137.303 36.796-.475 72.57-12.105 102.549-33.516-70.191-8.285-129.194-56.587-151.187-123.742zm.36 11.082c23.291 59.648 75.927 102.958 138.987 114.547-26.71 16.722-57.39 25.83-88.836 26.598-36.862-33.294-56.675-81.548-53.863-131.192a84.55 84.55 0 003.713-9.953z"/>
      <path d="M104.081 268.589c25.538-.94 50.551-7.51 73.214-19.432-54.337-13.929-99.808-51.07-124.222-101.582-1.145 45.813 17.429 89.92 51.008 121.014zM60.367 274.553C38.614 241.028 30.73 200.31 38.306 161.01a174.432 174.432 0 0034.754 95.525c-3.995 5.722-5.895 12.676-5.156 19.54-2.396-.557-4.962-1.056-7.537-1.52zM76.381 260.933a21.165 21.165 0 00-3.528 10.847c4.968.616 9.814 1.126 14.656 1.556-3.872-3.844-7.535-7.991-11.128-12.403z"/>
    </g>
    <g>
      <path d="M244.037 207.115c-42.27 56.647-113.6 83.597-182.756 69.069 4.048 5.954 8.421 11.694 13.14 17.146 43.526 28.84 97.93 35.978 147.37 19.356 17.986-32.105 25.8-68.902 22.246-105.57zm-4.287 11.2c1.128 31.492-6.324 62.616-21.38 90.232-47.264 15.278-98.96 8.31-140.548-18.945a84.548 84.548 0 00-6.763-8.192c63.302 9.652 127.126-14.277 168.691-63.096z"/>
      <path d="M234.71 231.266c-1.006 25.588-7.823 50.535-19.777 73.122-43.718 13.535-91.202 7.567-130.306-16.329 55.952 4.112 110.852-16.7 150.082-56.793zM202.083 333.029a423.14 423.14 0 008.675-11.915c-5.265 1.43-10.688 2.53-16.305 3.436a21.165 21.165 0 007.63 8.479zM198.242 345.228c1.69-1.998 3.405-3.97 5.086-5.767-6.314-2.792-11.388-7.914-14.345-14.234a174.432 174.432 0 01-100.105-17.663c30.248 26.212 69.454 39.742 109.364 37.664z"/>
    </g>
    <g>
      <path d="M231.662 152.455c27.923 64.931 15.595 140.182-31.566 192.809 7.18-.529 14.34-1.444 21.422-2.805 46.739-23.275 80.124-66.82 90.449-117.95-18.81-31.629-46.77-56.797-80.305-72.054zm7.555 9.313c27.838 14.77 51.067 36.786 67.455 63.634-10.402 48.572-42.284 89.859-86.684 112.246-3.53.376-7.03.95-10.476 1.762 40.011-49.996 51.2-117.235 29.705-177.642zM313.75 238.277c2.048 4.409 4.029 8.86 5.98 13.471a21.166 21.166 0 01-11.158 2.368c2.024-5.317 3.784-10.563 5.177-15.839z"/>
      <path d="M301.351 226.299c-13.584-21.647-31.78-40.025-53.437-53.69 15.107 54.023 5.679 111.974-25.86 158.375 40.248-21.917 69.16-60.056 79.297-104.685zM306.423 259.193c6.953.598 13.925-1.234 19.5-5.306.716 2.353 1.567 4.825 2.452 7.288-18.157 35.602-49.478 62.79-87.303 75.88a174.436 174.436 0 0065.351-77.862z"/>
    </g>
  </g>
</svg>
