<svg xmlns="http://www.w3.org/2000/svg" width="530.149" height="229.795" viewBox="0 0 497.015 215.433">
  <path fill="none" stroke="#a02c2c" stroke-width="2" d="m 326.50606,390.317 c 3.21279,-47.00792 -31.28427,-86.26898 -60.64141,-103.075 68.30137,23.15 54.51678,71.70112 92.97011,45.43306 15.09463,-4.0202 16.27026,5.00834 16.26475,3.60262 -0.0163,-4.17133 0.96484,-7.78703 -2.45274,-9.20903 -2.35444,-0.97964 -5.63019,-3.19601 -6.78403,-2.69964 -5.30126,2.28057 -11.47371,15.15831 -19.34269,21.7987 -17.40132,12.37606 -24.31504,2.55927 -40.94584,9.32811 3.46435,-7.75733 15.71861,-21.51982 27.55823,-21.51982 25.16619,0 32.08945,-30.14803 46.78625,-43.23145 4.6973,-4.18164 -2.20097,11.1026 -9.13636,14.71071 -14.68036,7.63739 -32.0826,11.524 -43.05129,33.38997 -19.4683,47.24435 -11.49007,77.85798 -45.89989,97.85698 -26.9061,15.63784 -57.38996,5.47182 -55.32318,9.25526 5.81281,3.5172 16.00483,-24.35875 11.64637,-30.42214 0.15422,-14.38464 -16.26729,-16.45471 -17.26875,-24.41776 2.38181,-8.17655 11.72333,-8.36776 18.87515,-4.8035 4.48485,2.23514 14.7746,20.07838 10.56337,16.6506 -6.31256,-5.13816 -17.67295,2.42885 -22.40046,-8.57609 -1.55772,-3.62617 -0.13837,-13.22283 -2.16475,-23.68504 -2.45514,-12.67584 -8.2181,-24.39152 -2.6057,-23.10046 2.84174,0.6537 3.85467,2.25369 3.99162,2.96367 3.91593,20.30153 -3.88985,-0.44114 -3.61438,2.80204 0,0 3.87507,17.82187 0.1218,27.41822 -4.8134,12.30688 8.99882,34.55824 17.71488,35.54891 -7.48923,6.42916 -19.42955,21.64584 -19.7716,29.90876 0,9.95713 25.97082,9.69109 29.10582,6.42478 3.52062,-3.66809 -28.79019,-2.09441 -31.73049,-2.09441 -14.23705,0 -33.969,1.84244 -48.0095,5.34114 -28.82345,7.1824 21.98986,7.14968 25.4998,3.65118 -4.20214,-2.45611 -47.41046,-3.2841 -61.91165,-3.41253 -7.55211,-0.63723 -48.347691,2.5189 -49.124498,6.30753 5.141241,1.16627 30.474478,7.77647 69.805098,-4.42332 5.87769,-1.82318 16.24758,-10.38628 7.02207,-12.08158 -17.07799,-7.18776 -29.14826,-1.15942 -43.6121,-2.80204 4.96816,1.80274 17.22503,1.27137 23.34564,1.50821 12.59985,0.48755 28.99714,0.87993 39.00798,-2.44614 15.75156,-5.23343 9.89202,-14.64088 -0.66958,-25.081 -12.87647,-11.6893 -7.70992,-4.13845 -6.02398,-6.40465 3.01666,-6.01368 6.97751,-12.34642 13.65436,-14.0102 5.10172,-1.27128 19.29172,-5.12287 19.96232,-10.08013 1.26625,-9.36064 -12.34056,-40.81424 7.74799,-32.35073 1.43365,0.604 5.95468,15.77435 1.6064,10.00727 -1.48101,-1.96425 -7.74821,-10.43541 -9.66273,-4.71054 -2.9041,8.68395 5.74615,18.82371 4.84354,28.32772 -1.144,12.04572 -43.49719,12.16077 -48.59344,2.00146 -0.45775,-0.91249 7.25277,0.2255 7.63037,0 17.71079,-10.57691 24.90714,-14.87451 32.10772,-6.21457 4.73084,5.68966 -12.45786,13.14023 -15.64217,16.22185 -10.93975,15.9998 -11.02507,35.73079 1.2048,48.43524 2.47667,2.4686 21.11277,2.14773 20.05975,0.0486 -20.18812,-4.10619 -50.43269,-1.27811 -69.05479,-1.24944 -2.32127,0 -33.87476,-0.88632 -31.49106,3.86555 20.56251,0.49186 32.2043,-0.19863 30.68785,-21.87865 -0.54446,-25.22661 -25.08292,-27.51396 -36.94709,-33.62446 -29.453101,-15.16948 11.79379,-37.86479 -5.220782,-47.63466 -0.891504,-0.4443 -4.927736,-1.43987 -6.44994,2.78609 -1.03573,2.87542 -6.890365,7.03672 -2.807006,11.10686 0.262631,0.26179 9.256946,-13.89295 11.881613,-4.7792 2.323975,8.06965 -9.457036,22.10379 -3.026269,28.51363 6.099394,10.78125 33.365724,15.90806 47.555004,10.71491 0,-1.51205 -5.00384,-1.13721 -5.78873,-1.50822 -12.5681,-4.73089 -24.3863,-28.97329 -36.92273,-13.5655 -6.717065,8.25557 9.07117,14.39064 11.69509,19.12935 8.72382,15.75496 0.60799,39.52978 -14.932234,47.27459 -25.616516,4.63504 -49.995496,-1.89641 -81.122949,4.40321 17.545285,2.68896 57.714778,-2.03603 61.728587,2.33307 3.0842,3.35721 -12.811962,4.21784 -15.946331,-1.13219 -5.303025,-9.05172 -3.437666,-27.84672 -3.026264,-37.08973 0.611879,-13.74711 19.638853,-11.93741 19.090216,-22.95396 -10.291034,-25.37616 -28.045943,6.89709 -44.905978,-4.4032 11.334221,7.10583 15.273197,16.46582 37.677203,9.2067 8.848847,1.50877 2.301243,13.61976 2.551572,18.1345 0.259621,4.6821 9.609786,-6.98666 10.749903,-0.42457 1.806599,10.39812 4.397706,13.05269 -1.655112,17.1154 -0.933953,1.86182 -0.918532,4.06039 -3.212791,5.20379 -0.606754,0.30238 -5.779284,1.04447 -6.425581,0.40029 -0.918867,-0.91588 7.112413,-4.65221 6.827181,-5.20379 -1.074779,-2.07841 -1.797485,-7.64051 2.385233,-9.39262 0,0 1.066294,-5.39736 -1.380806,-5.8673 -2.038591,-0.39148 -2.695204,0.32791 -4.898614,2.00175 -2.504546,1.9026 -6.159894,-2.39311 -5.342586,-7.55696 1.577155,-13.25753 -38.665029,-10.68555 -39.356678,-12.40904 10.563862,2.09486 29.490302,5.12519 26.181182,12.40904" transform="translate(96.834 -268.578)"/>
  <path fill="none" stroke="#668000" stroke-width="2" d="m -88.790895,195.22684 c 26.500316,-11.08555 56.728776,2.45078 80.3535707,-6.1781 6.286687,-2.29619 -0.8635234,-50.7032 -9.2637487,-62.49185 -5.317193,-7.07124 -17.856609,-10.2055 -25.938181,-11.81763 -3.497832,-0.69775 -12.832629,5.40613 -14.730322,3.51336 -1.34224,-1.33877 1.605159,-5.10228 0.960672,-6.38791 -1.328145,-2.64942 -15.367242,-1.6005 -6.40449,-10.54005 1.094379,-1.09154 9.392964,-5.323539 11.848309,-2.874553 5.710319,5.695533 -2.059008,12.627303 5.123588,16.209313 M 131.20329,195.22684 C 83.872691,186.18501 42.291007,203.78534 6.9562083,187.24197 -7.896525,172.77663 -2.4691562,137.47698 8.5573292,125.5987 21.504688,112.68487 38.669728,114.41611 53.068531,109.62894 c 2.633121,-0.87543 8.20799,5.22787 10.887639,2.55516 -16.075539,-13.302998 -36.585948,12.70821 -20.814605,-7.66548 3.603474,-3.59414 25.372877,6.21839 21.134818,-2.23577 -2.517033,-5.021034 -17.482265,-5.170237 -13.129199,3.51335 3.497747,6.97738 18.203537,-0.68792 11.848302,-7.026698 C 59.5026,95.285655 53.721017,96.111878 49.225837,94.617365 38.812032,91.155085 24.257859,83.748417 14.001143,93.978575 c -5.9994118,5.98388 9.490921,7.780995 12.168531,5.110322 1.176979,-1.173933 1.619716,1.879283 0.960677,3.193953 -2.189191,4.36704 -11.67772,6.95207 -4.483145,10.54004 1.730027,0.86278 13.727734,-7.34609 20.494359,-7.34609 0.837762,0 5.050888,-1.13253 5.443817,-1.91637 4.923632,-9.821772 -29.885122,5.64513 -27.219071,8.30428 1.446369,1.44262 9.029179,-6.42973 9.926959,-7.0267 3.79458,-2.52317 21.805448,-5.080215 16.01122,-10.859435 -3.54406,-3.534879 -13.984266,-1.348933 -19.533694,-3.193952 -2.320554,-0.771515 -7.083472,-3.232387 -8.646057,-4.790928 -5.405787,-5.391784 -24.0573492,0.998597 -27.5393038,4.471533 -2.4165282,2.410272 -9.1682832,4.825291 -7.6853852,9.26246 2.243356,6.712642 21.594451,0.819132 25.2977304,-2.874557 2.6153676,-2.608591 -0.6404512,-5.534876 -0.6404512,-8.304274 0,-2.109226 1.9657018,-4.383049 1.2809016,-5.749114 -14.4399068,-5.782945 -25.9101198,-0.09215 -36.1853608,5.429718 -2.187244,1.090789 -9.066317,-0.319395 -11.848305,-0.319395 -1.004227,0 -5.553916,1.806557 -5.764041,1.596977 -3.898489,-3.572483 -15.10147,-3.800319 -18.252794,-0.958186 -8.135247,10.323526 3.655115,14.603703 9.286507,17.247343 4.357709,2.17321 -3.517459,8.62367 5.764041,8.62367 6.563828,-1.15873 18.075015,7.53741 17.612345,0.31939 -2.358546,-2.35244 -11.284275,1.55887 -14.410099,0 -1.879927,-0.93753 -1.317731,-3.85111 -2.561795,-4.47153 -1.462432,-0.72932 -3.7554,-0.53718 -5.443814,-0.95819 -1.382184,-0.34465 0.690302,-4.37208 0.32022,-5.11032 -0.831626,-1.65895 -4.573685,-2.91971 -6.404487,-3.83274 -0.744663,-0.371369 -24.574518,8.65583 -13.449426,-1.43728 6.754513,-6.127953 24.884146,-9.901251 27.859529,-9.901251 4.130884,0 0.04103,8.134346 -2.561796,8.783368 -2.311092,0.576276 -14.382443,0.693966 -13.129204,3.193953 1.340438,2.67393 11.130434,0.56157 13.129204,2.55516 2.422149,2.41588 11.767455,16.01007 16.971893,13.4146 5.647903,-2.81664 -10.685516,-6.62351 -11.207854,-7.66549 -1.240281,-2.47413 -1.140935,-6.2483 -3.202248,-8.30427 -0.606411,-0.60484 -4.114171,-1.694217 -3.522468,-2.874559 1.154651,-2.303316 11.173396,0.863179 13.769655,0 2.561427,-0.851598 5.374642,-7.794945 1.921344,-8.943064 -5.722968,-1.902716 -5.698317,12.753953 3.842695,9.581855 2.281241,-0.758445 2.09734,-4.239907 3.842689,-5.110322 6.367828,-3.175668 26.6779611,-11.988407 32.9831194,-2.555162 4.5871146,6.862854 -13.5261911,12.622682 -17.9325708,3.832742 -2.3817126,-4.751095 12.6552531,-0.634544 14.0898768,0.319395 11.1669996,7.425395 11.6179076,9.951865 7.3651616,22.677065 -0.316988,0.94849 -1.612291,2.54401 -2.8820172,1.27758 -0.5951761,-0.59363 -0.159178,-3.03333 -0.960676,-3.83274 -3.4912838,-3.48224 -8.83472116,-6.25669 -12.8089779,-10.22066 -0.8094146,-0.80732 -0.037051,-4.15213 -1.9213456,-4.15213 -2.546704,0 -8.0056103,-1.542374 -8.0056103,2.87455 0,3.97532 1.110906,4.77123 2.561796,7.66549 2.9285656,5.84197 -3.364198,22.45265 5.9743818,27.10984 2.3238748,1.15894 7.4784152,-6.67528 8.7559419,-9.22371 1.2067686,-2.40729 4.470712,-6.10571 3.2022419,-9.90125 C 3.475857,110.07435 -16.329738,92.1768 -26.34713,97.172527 c -4.255569,2.122273 10.203567,9.944753 7.685383,12.456413 -1.898124,1.89321 -2.850591,-1.80518 -8.646061,-7.98488 -1.911136,-2.037841 -15.690995,-5.729028 -15.690995,0.63879 0,5.97561 28.499973,1.7144 28.499973,16.60855 0,0.81905 0.522129,4.58955 0,5.11032 -1.535634,1.53166 -12.277266,-8.3585 -14.730322,-9.58185 -2.413649,-1.2037 -3.371736,-2.27803 -5.443819,-2.79471" transform="translate(106.893 -20)"/>
</svg>
