<svg xmlns="http://www.w3.org/2000/svg" xmlns:xlink="http://www.w3.org/1999/xlink" version="1.1">
<path id="outline" d="M300 156.104s-50.33 23.486-42.641 29.674c7.688 6.189 52.442-6.647 37.654-21.944-27.563-28.51-77.846-12.353-72.815-6.234 14.463 2.992 28.428 5.735 23.44 11.222-21.179 13.516-57.978 16.881-66.331 32.667-6.004 23.298-41.928 31.653-39.4 26.931 4.987-8.478 17.428-13.828 19.45-18.952 3.74-9.476-3.49-18.952-3.49-18.952 8.305 1.529 12.621 2.706 21.694-6.732 39.831-61.2 57.172-59.679 85.782-70.571 5.985-8.728 5.237-9.227-1.246-25.685-2.844-7.219-2.245-8.23 9.725 3.242 12.099 11.594 15.71 21.695 28.677 26.682 68.803 22.992 59.258 70.206 52.866 68.576-11.329-8.6-22.596-17.335-26.932-22.443-19.416-20.078-8.297-17.238-2.992-16.957 5.102.27 15.46 5.237 12.219 12.219-3.267 7.037-11.72 2.992-16.209 7.98-12.699 18.785 15.72 20.955 24.687 21.695" 
opacity="1" fill="none" fill-opacity="1" stroke="#000" stroke-width="2" stroke-linejoin="miter" stroke-miterlimit="4" stroke-dashoffset="0" stroke-opacity="1"/></svg>