<svg xmlns="http://www.w3.org/2000/svg" width="494.434" height="288.924" viewBox="0 0 463.532 270.866">
  <path fill="none" stroke="#fc0" stroke-width="2" d="m 359.17663,219.20829 0.34669,0.6934 -24.96208,-43.33695 -53.39112,-55.81799 -15.25461,51.65764 19.06826,17.68147 46.11051,23.922 -0.34669,10.74756 29.12243,-5.20043 -10.05417,-40.56338 -22.18852,-20.10835 3.12026,-24.26869 34.32286,-8.32069 52.00434,0.69339 10.05417,-12.82774 -14.21452,-17.681474 -1.73347,-16.641388 -24.61539,-22.881908 -2.42687,-13.521128 -9.36078,-4.507043 -8.3207,12.827737 c 0,0 -85.63381,-16.641388 -87.71398,-16.641388 -2.08017,0 -15.6013,9.707476 -16.98808,9.707476 -1.38678,0 -109.20911,-7.280607 -109.20911,-7.280607 l -68.299033,40.910079 -31.549298,48.190684 5.200434,9.36078 -21.148431,62.40521 15.947997,36.40304 -4.507043,-27.73565 26.348865,-1.04009 14.90791,26.69556 -52.697729,-33.28277 48.190687,-82.16686 34.322861,116.48972 57.89816,-1.73348 -21.84182,-22.53521 10.74757,-29.12243 18.72156,-55.81799 -100.888418,-7.974 50.617558,47.84399 28.77573,14.21452 43.68364,-24.26869 47.1506,-59.631642 -90.14085,-36.403036 -70.032506,19.761648 89.447466,44.37704 -19.41496,-64.832079 39.5233,-11.440955 58.24486,0.346696 -6.93391,49.577469 6.93391,58.938249 5.89382,16.98808 -25.30878,13.52113 14.90791,47.4973 44.37704,0.34669 -33.62947,-11.78765 -24.61539,-36.40303"/>
  <path fill="none" stroke="#fc0" stroke-width="2" d="m 48.190686,205.68717 54.431204,-31.5493 32.93608,-9.01409 48.19069,-41.95016 71.0726,-28.775737 46.11051,-40.563384 69.33912,4.853739 7.6273,17.681474 24.61539,21.495127 0.34669,-19.414953 -22.18852,-19.761648 -3.46695,16.641388 25.30878,3.12026 7.6273,2.426869"/>
  <path fill="none" stroke="#fc0" stroke-width="2" d="m 412.56775,96.824752 -10.05417,1.040087 -11.78765,23.575301 24.96208,4.50704 3.81365,-15.948 -16.29469,-11.44095"/>
  <path fill="none" stroke="#fc0" stroke-width="2" d="m 390.72593,121.78683 -30.50922,-1.73347 -30.50921,13.17443 -47.49729,-12.82774 68.99242,-26.695558 -71.0726,-56.858076"/>
</svg>
